<mxfile host="app.diagrams.net" agent="Mozilla/5.0 (Windows NT 10.0; Win64; x64) AppleWebKit/537.36 (KHTML, like Gecko) Chrome/141.0.0.0 Safari/537.36 Edg/141.0.0.0" version="28.2.5">
  <diagram name="Página-1" id="phQLGozi5kFuAy9l4Qqh">
    <mxGraphModel dx="1204" dy="661" grid="1" gridSize="10" guides="1" tooltips="1" connect="1" arrows="1" fold="1" page="1" pageScale="1" pageWidth="827" pageHeight="1169" math="0" shadow="0">
      <root>
        <mxCell id="0" />
        <mxCell id="1" parent="0" />
        <mxCell id="sJ80HO0eEis165o_eqjd-1" value="Cliente" style="whiteSpace=wrap;html=1;align=center;labelBackgroundColor=none;" vertex="1" parent="1">
          <mxGeometry x="170" y="300" width="100" height="40" as="geometry" />
        </mxCell>
        <mxCell id="sJ80HO0eEis165o_eqjd-2" value="Animal" style="whiteSpace=wrap;html=1;align=center;labelBackgroundColor=none;" vertex="1" parent="1">
          <mxGeometry x="530" y="300" width="100" height="40" as="geometry" />
        </mxCell>
        <mxCell id="sJ80HO0eEis165o_eqjd-3" value="Veterinário" style="whiteSpace=wrap;html=1;align=center;labelBackgroundColor=none;" vertex="1" parent="1">
          <mxGeometry x="170" y="510" width="100" height="40" as="geometry" />
        </mxCell>
        <mxCell id="sJ80HO0eEis165o_eqjd-4" value="Atendimento" style="whiteSpace=wrap;html=1;align=center;labelBackgroundColor=none;" vertex="1" parent="1">
          <mxGeometry x="530" y="510" width="100" height="40" as="geometry" />
        </mxCell>
        <mxCell id="sJ80HO0eEis165o_eqjd-5" value="Produto" style="whiteSpace=wrap;html=1;align=center;labelBackgroundColor=none;" vertex="1" parent="1">
          <mxGeometry x="535" y="120" width="100" height="40" as="geometry" />
        </mxCell>
        <mxCell id="sJ80HO0eEis165o_eqjd-6" value="Venda" style="whiteSpace=wrap;html=1;align=center;labelBackgroundColor=none;" vertex="1" parent="1">
          <mxGeometry x="170" y="120" width="100" height="40" as="geometry" />
        </mxCell>
        <mxCell id="sJ80HO0eEis165o_eqjd-8" value="Pertence" style="shape=rhombus;perimeter=rhombusPerimeter;whiteSpace=wrap;html=1;align=center;" vertex="1" parent="1">
          <mxGeometry x="370" y="300" width="90" height="40" as="geometry" />
        </mxCell>
        <mxCell id="sJ80HO0eEis165o_eqjd-10" value="" style="edgeStyle=entityRelationEdgeStyle;fontSize=12;html=1;endArrow=ERoneToMany;rounded=0;exitX=1;exitY=0.5;exitDx=0;exitDy=0;entryX=0;entryY=0.5;entryDx=0;entryDy=0;" edge="1" parent="1" source="sJ80HO0eEis165o_eqjd-8" target="sJ80HO0eEis165o_eqjd-2">
          <mxGeometry width="100" height="100" relative="1" as="geometry">
            <mxPoint x="510" y="450" as="sourcePoint" />
            <mxPoint x="610" y="350" as="targetPoint" />
          </mxGeometry>
        </mxCell>
        <mxCell id="sJ80HO0eEis165o_eqjd-11" value="(1, n)" style="edgeLabel;html=1;align=center;verticalAlign=middle;resizable=0;points=[];" vertex="1" connectable="0" parent="sJ80HO0eEis165o_eqjd-10">
          <mxGeometry x="-0.2074" y="2" relative="1" as="geometry">
            <mxPoint as="offset" />
          </mxGeometry>
        </mxCell>
        <mxCell id="sJ80HO0eEis165o_eqjd-12" value="" style="edgeStyle=entityRelationEdgeStyle;fontSize=12;html=1;endArrow=ERmandOne;startArrow=ERmandOne;rounded=0;exitX=1;exitY=0.5;exitDx=0;exitDy=0;entryX=0;entryY=0.5;entryDx=0;entryDy=0;" edge="1" parent="1" source="sJ80HO0eEis165o_eqjd-1" target="sJ80HO0eEis165o_eqjd-8">
          <mxGeometry width="100" height="100" relative="1" as="geometry">
            <mxPoint x="510" y="450" as="sourcePoint" />
            <mxPoint x="610" y="350" as="targetPoint" />
          </mxGeometry>
        </mxCell>
        <mxCell id="sJ80HO0eEis165o_eqjd-13" value="(1,1)" style="edgeLabel;html=1;align=center;verticalAlign=middle;resizable=0;points=[];" vertex="1" connectable="0" parent="sJ80HO0eEis165o_eqjd-12">
          <mxGeometry x="-0.2444" relative="1" as="geometry">
            <mxPoint as="offset" />
          </mxGeometry>
        </mxCell>
        <mxCell id="sJ80HO0eEis165o_eqjd-14" value="Recebe" style="shape=rhombus;perimeter=rhombusPerimeter;whiteSpace=wrap;html=1;align=center;" vertex="1" parent="1">
          <mxGeometry x="535" y="400" width="90" height="50" as="geometry" />
        </mxCell>
        <mxCell id="sJ80HO0eEis165o_eqjd-15" value="Realiza" style="shape=rhombus;perimeter=rhombusPerimeter;whiteSpace=wrap;html=1;align=center;" vertex="1" parent="1">
          <mxGeometry x="360" y="505" width="90" height="50" as="geometry" />
        </mxCell>
        <mxCell id="sJ80HO0eEis165o_eqjd-16" value="" style="edgeStyle=orthogonalEdgeStyle;fontSize=12;html=1;endArrow=ERoneToMany;rounded=0;entryX=0.5;entryY=0;entryDx=0;entryDy=0;exitX=0.5;exitY=1;exitDx=0;exitDy=0;curved=1;" edge="1" parent="1" source="sJ80HO0eEis165o_eqjd-14" target="sJ80HO0eEis165o_eqjd-4">
          <mxGeometry width="100" height="100" relative="1" as="geometry">
            <mxPoint x="510" y="490" as="sourcePoint" />
            <mxPoint x="610" y="390" as="targetPoint" />
          </mxGeometry>
        </mxCell>
        <mxCell id="sJ80HO0eEis165o_eqjd-17" value="(1,n)" style="edgeLabel;html=1;align=center;verticalAlign=middle;resizable=0;points=[];" vertex="1" connectable="0" parent="sJ80HO0eEis165o_eqjd-16">
          <mxGeometry x="-0.1889" y="4" relative="1" as="geometry">
            <mxPoint x="-4" as="offset" />
          </mxGeometry>
        </mxCell>
        <mxCell id="sJ80HO0eEis165o_eqjd-18" value="" style="edgeStyle=orthogonalEdgeStyle;fontSize=12;html=1;endArrow=ERmandOne;startArrow=ERmandOne;rounded=0;entryX=0.5;entryY=1;entryDx=0;entryDy=0;exitX=0.5;exitY=0;exitDx=0;exitDy=0;curved=1;" edge="1" parent="1" source="sJ80HO0eEis165o_eqjd-14" target="sJ80HO0eEis165o_eqjd-2">
          <mxGeometry width="100" height="100" relative="1" as="geometry">
            <mxPoint x="510" y="490" as="sourcePoint" />
            <mxPoint x="610" y="390" as="targetPoint" />
          </mxGeometry>
        </mxCell>
        <mxCell id="sJ80HO0eEis165o_eqjd-19" value="(1,1)" style="edgeLabel;html=1;align=center;verticalAlign=middle;resizable=0;points=[];" vertex="1" connectable="0" parent="sJ80HO0eEis165o_eqjd-18">
          <mxGeometry x="0.0222" y="-4" relative="1" as="geometry">
            <mxPoint x="-4" as="offset" />
          </mxGeometry>
        </mxCell>
        <mxCell id="sJ80HO0eEis165o_eqjd-20" value="" style="edgeStyle=entityRelationEdgeStyle;fontSize=12;html=1;endArrow=ERoneToMany;rounded=0;entryX=0;entryY=0.5;entryDx=0;entryDy=0;exitX=1;exitY=0.5;exitDx=0;exitDy=0;" edge="1" parent="1" source="sJ80HO0eEis165o_eqjd-15" target="sJ80HO0eEis165o_eqjd-4">
          <mxGeometry width="100" height="100" relative="1" as="geometry">
            <mxPoint x="510" y="490" as="sourcePoint" />
            <mxPoint x="610" y="390" as="targetPoint" />
          </mxGeometry>
        </mxCell>
        <mxCell id="sJ80HO0eEis165o_eqjd-21" value="(1, n)" style="edgeLabel;html=1;align=center;verticalAlign=middle;resizable=0;points=[];" vertex="1" connectable="0" parent="sJ80HO0eEis165o_eqjd-20">
          <mxGeometry x="-0.3333" y="-3" relative="1" as="geometry">
            <mxPoint x="3" y="-3" as="offset" />
          </mxGeometry>
        </mxCell>
        <mxCell id="sJ80HO0eEis165o_eqjd-22" value="" style="edgeStyle=entityRelationEdgeStyle;fontSize=12;html=1;endArrow=ERmandOne;startArrow=ERmandOne;rounded=0;entryX=1;entryY=0.5;entryDx=0;entryDy=0;exitX=0;exitY=0.5;exitDx=0;exitDy=0;" edge="1" parent="1" source="sJ80HO0eEis165o_eqjd-15" target="sJ80HO0eEis165o_eqjd-3">
          <mxGeometry width="100" height="100" relative="1" as="geometry">
            <mxPoint x="510" y="490" as="sourcePoint" />
            <mxPoint x="610" y="390" as="targetPoint" />
          </mxGeometry>
        </mxCell>
        <mxCell id="sJ80HO0eEis165o_eqjd-23" value="(1,1)" style="edgeLabel;html=1;align=center;verticalAlign=middle;resizable=0;points=[];" vertex="1" connectable="0" parent="sJ80HO0eEis165o_eqjd-22">
          <mxGeometry x="0.0741" relative="1" as="geometry">
            <mxPoint as="offset" />
          </mxGeometry>
        </mxCell>
        <mxCell id="sJ80HO0eEis165o_eqjd-24" value="Faz" style="shape=rhombus;perimeter=rhombusPerimeter;whiteSpace=wrap;html=1;align=center;" vertex="1" parent="1">
          <mxGeometry x="177.5" y="210" width="85" height="40" as="geometry" />
        </mxCell>
        <mxCell id="sJ80HO0eEis165o_eqjd-25" value="" style="edgeStyle=orthogonalEdgeStyle;fontSize=12;html=1;endArrow=ERmandOne;startArrow=ERmandOne;rounded=0;entryX=0.5;entryY=0;entryDx=0;entryDy=0;exitX=0.5;exitY=1;exitDx=0;exitDy=0;curved=1;" edge="1" parent="1" source="sJ80HO0eEis165o_eqjd-24" target="sJ80HO0eEis165o_eqjd-1">
          <mxGeometry width="100" height="100" relative="1" as="geometry">
            <mxPoint x="510" y="490" as="sourcePoint" />
            <mxPoint x="610" y="390" as="targetPoint" />
          </mxGeometry>
        </mxCell>
        <mxCell id="sJ80HO0eEis165o_eqjd-26" value="(1,1)" style="edgeLabel;html=1;align=center;verticalAlign=middle;resizable=0;points=[];" vertex="1" connectable="0" parent="sJ80HO0eEis165o_eqjd-25">
          <mxGeometry x="-0.1867" y="3" relative="1" as="geometry">
            <mxPoint x="-3" as="offset" />
          </mxGeometry>
        </mxCell>
        <mxCell id="sJ80HO0eEis165o_eqjd-29" value="" style="edgeStyle=orthogonalEdgeStyle;fontSize=12;html=1;endArrow=ERzeroToMany;endFill=1;rounded=0;curved=1;entryX=0.5;entryY=1;entryDx=0;entryDy=0;exitX=0.5;exitY=0;exitDx=0;exitDy=0;" edge="1" parent="1" source="sJ80HO0eEis165o_eqjd-24" target="sJ80HO0eEis165o_eqjd-6">
          <mxGeometry width="100" height="100" relative="1" as="geometry">
            <mxPoint x="510" y="490" as="sourcePoint" />
            <mxPoint x="610" y="390" as="targetPoint" />
          </mxGeometry>
        </mxCell>
        <mxCell id="sJ80HO0eEis165o_eqjd-30" value="(0,n)" style="edgeLabel;html=1;align=center;verticalAlign=middle;resizable=0;points=[];" vertex="1" connectable="0" parent="sJ80HO0eEis165o_eqjd-29">
          <mxGeometry x="-0.0933" y="-3" relative="1" as="geometry">
            <mxPoint x="-3" as="offset" />
          </mxGeometry>
        </mxCell>
        <mxCell id="sJ80HO0eEis165o_eqjd-31" value="Possui" style="shape=rhombus;perimeter=rhombusPerimeter;whiteSpace=wrap;html=1;align=center;" vertex="1" parent="1">
          <mxGeometry x="350" y="120" width="85" height="40" as="geometry" />
        </mxCell>
        <mxCell id="sJ80HO0eEis165o_eqjd-32" value="" style="edgeStyle=entityRelationEdgeStyle;fontSize=12;html=1;endArrow=ERoneToMany;rounded=0;entryX=0;entryY=0.5;entryDx=0;entryDy=0;exitX=1;exitY=0.5;exitDx=0;exitDy=0;" edge="1" parent="1" source="sJ80HO0eEis165o_eqjd-31" target="sJ80HO0eEis165o_eqjd-5">
          <mxGeometry width="100" height="100" relative="1" as="geometry">
            <mxPoint x="510" y="490" as="sourcePoint" />
            <mxPoint x="610" y="390" as="targetPoint" />
          </mxGeometry>
        </mxCell>
        <mxCell id="sJ80HO0eEis165o_eqjd-33" value="(1,n)" style="edgeLabel;html=1;align=center;verticalAlign=middle;resizable=0;points=[];" vertex="1" connectable="0" parent="sJ80HO0eEis165o_eqjd-32">
          <mxGeometry x="-0.1667" y="2" relative="1" as="geometry">
            <mxPoint as="offset" />
          </mxGeometry>
        </mxCell>
        <mxCell id="sJ80HO0eEis165o_eqjd-34" value="" style="edgeStyle=entityRelationEdgeStyle;fontSize=12;html=1;endArrow=ERoneToMany;rounded=0;entryX=1;entryY=0.5;entryDx=0;entryDy=0;exitX=0;exitY=0.5;exitDx=0;exitDy=0;" edge="1" parent="1" source="sJ80HO0eEis165o_eqjd-31" target="sJ80HO0eEis165o_eqjd-6">
          <mxGeometry width="100" height="100" relative="1" as="geometry">
            <mxPoint x="510" y="490" as="sourcePoint" />
            <mxPoint x="610" y="390" as="targetPoint" />
          </mxGeometry>
        </mxCell>
        <mxCell id="sJ80HO0eEis165o_eqjd-35" value="(1,n)" style="edgeLabel;html=1;align=center;verticalAlign=middle;resizable=0;points=[];" vertex="1" connectable="0" parent="sJ80HO0eEis165o_eqjd-34">
          <mxGeometry x="0.1333" y="1" relative="1" as="geometry">
            <mxPoint x="5" y="-1" as="offset" />
          </mxGeometry>
        </mxCell>
        <mxCell id="sJ80HO0eEis165o_eqjd-43" style="edgeStyle=orthogonalEdgeStyle;rounded=0;orthogonalLoop=1;jettySize=auto;html=1;entryX=0;entryY=0.5;entryDx=0;entryDy=0;endArrow=none;endFill=0;" edge="1" parent="1" source="sJ80HO0eEis165o_eqjd-36" target="sJ80HO0eEis165o_eqjd-1">
          <mxGeometry relative="1" as="geometry" />
        </mxCell>
        <mxCell id="sJ80HO0eEis165o_eqjd-36" value="Codigo" style="ellipse;whiteSpace=wrap;html=1;align=center;fontStyle=4;" vertex="1" parent="1">
          <mxGeometry x="110" y="307.5" width="40" height="25" as="geometry" />
        </mxCell>
        <mxCell id="sJ80HO0eEis165o_eqjd-90" style="edgeStyle=orthogonalEdgeStyle;shape=connector;rounded=0;orthogonalLoop=1;jettySize=auto;html=1;entryX=0;entryY=0.5;entryDx=0;entryDy=0;strokeColor=default;align=center;verticalAlign=middle;fontFamily=Helvetica;fontSize=11;fontColor=default;labelBackgroundColor=default;endArrow=none;endFill=0;" edge="1" parent="1" source="sJ80HO0eEis165o_eqjd-37" target="sJ80HO0eEis165o_eqjd-6">
          <mxGeometry relative="1" as="geometry" />
        </mxCell>
        <mxCell id="sJ80HO0eEis165o_eqjd-37" value="Data" style="ellipse;whiteSpace=wrap;html=1;align=center;fontStyle=4;" vertex="1" parent="1">
          <mxGeometry x="110" y="130" width="40" height="25" as="geometry" />
        </mxCell>
        <mxCell id="sJ80HO0eEis165o_eqjd-80" style="edgeStyle=orthogonalEdgeStyle;shape=connector;rounded=0;orthogonalLoop=1;jettySize=auto;html=1;strokeColor=default;align=center;verticalAlign=middle;fontFamily=Helvetica;fontSize=11;fontColor=default;labelBackgroundColor=default;endArrow=none;endFill=0;" edge="1" parent="1" source="sJ80HO0eEis165o_eqjd-38" target="sJ80HO0eEis165o_eqjd-5">
          <mxGeometry relative="1" as="geometry" />
        </mxCell>
        <mxCell id="sJ80HO0eEis165o_eqjd-38" value="Codigo" style="ellipse;whiteSpace=wrap;html=1;align=center;fontStyle=4;" vertex="1" parent="1">
          <mxGeometry x="560" y="80" width="50" height="20" as="geometry" />
        </mxCell>
        <mxCell id="sJ80HO0eEis165o_eqjd-55" value="" style="edgeStyle=orthogonalEdgeStyle;shape=connector;rounded=0;orthogonalLoop=1;jettySize=auto;html=1;strokeColor=default;align=center;verticalAlign=middle;fontFamily=Helvetica;fontSize=11;fontColor=default;labelBackgroundColor=default;endArrow=none;endFill=0;" edge="1" parent="1" source="sJ80HO0eEis165o_eqjd-39" target="sJ80HO0eEis165o_eqjd-2">
          <mxGeometry relative="1" as="geometry" />
        </mxCell>
        <mxCell id="sJ80HO0eEis165o_eqjd-39" value="Codigo" style="ellipse;whiteSpace=wrap;html=1;align=center;fontStyle=4;" vertex="1" parent="1">
          <mxGeometry x="510" y="260" width="50" height="20" as="geometry" />
        </mxCell>
        <mxCell id="sJ80HO0eEis165o_eqjd-62" value="" style="edgeStyle=orthogonalEdgeStyle;shape=connector;rounded=0;orthogonalLoop=1;jettySize=auto;html=1;strokeColor=default;align=center;verticalAlign=middle;fontFamily=Helvetica;fontSize=11;fontColor=default;labelBackgroundColor=default;endArrow=none;endFill=0;" edge="1" parent="1" source="sJ80HO0eEis165o_eqjd-40" target="sJ80HO0eEis165o_eqjd-4">
          <mxGeometry relative="1" as="geometry" />
        </mxCell>
        <mxCell id="sJ80HO0eEis165o_eqjd-40" value="Data" style="ellipse;whiteSpace=wrap;html=1;align=center;fontStyle=4;" vertex="1" parent="1">
          <mxGeometry x="650" y="517.5" width="50" height="25" as="geometry" />
        </mxCell>
        <mxCell id="sJ80HO0eEis165o_eqjd-70" value="" style="edgeStyle=orthogonalEdgeStyle;shape=connector;rounded=0;orthogonalLoop=1;jettySize=auto;html=1;strokeColor=default;align=center;verticalAlign=middle;fontFamily=Helvetica;fontSize=11;fontColor=default;labelBackgroundColor=default;endArrow=none;endFill=0;" edge="1" parent="1" source="sJ80HO0eEis165o_eqjd-41" target="sJ80HO0eEis165o_eqjd-3">
          <mxGeometry relative="1" as="geometry" />
        </mxCell>
        <mxCell id="sJ80HO0eEis165o_eqjd-41" value="CRMV" style="ellipse;whiteSpace=wrap;html=1;align=center;fontStyle=4;" vertex="1" parent="1">
          <mxGeometry x="195" y="570" width="50" height="25" as="geometry" />
        </mxCell>
        <mxCell id="sJ80HO0eEis165o_eqjd-44" style="edgeStyle=orthogonalEdgeStyle;shape=connector;rounded=0;orthogonalLoop=1;jettySize=auto;html=1;entryX=0;entryY=0.5;entryDx=0;entryDy=0;strokeColor=default;align=center;verticalAlign=middle;fontFamily=Helvetica;fontSize=11;fontColor=default;labelBackgroundColor=default;endArrow=none;endFill=0;" edge="1" parent="1" source="sJ80HO0eEis165o_eqjd-42" target="sJ80HO0eEis165o_eqjd-1">
          <mxGeometry relative="1" as="geometry" />
        </mxCell>
        <mxCell id="sJ80HO0eEis165o_eqjd-42" value="Nome" style="ellipse;whiteSpace=wrap;html=1;align=center;" vertex="1" parent="1">
          <mxGeometry x="110" y="340" width="40" height="15" as="geometry" />
        </mxCell>
        <mxCell id="sJ80HO0eEis165o_eqjd-46" style="edgeStyle=orthogonalEdgeStyle;shape=connector;rounded=0;orthogonalLoop=1;jettySize=auto;html=1;entryX=0;entryY=0.25;entryDx=0;entryDy=0;strokeColor=default;align=center;verticalAlign=middle;fontFamily=Helvetica;fontSize=11;fontColor=default;labelBackgroundColor=default;endArrow=none;endFill=0;" edge="1" parent="1" source="sJ80HO0eEis165o_eqjd-45" target="sJ80HO0eEis165o_eqjd-1">
          <mxGeometry relative="1" as="geometry" />
        </mxCell>
        <mxCell id="sJ80HO0eEis165o_eqjd-45" value="CPF" style="ellipse;whiteSpace=wrap;html=1;align=center;" vertex="1" parent="1">
          <mxGeometry x="110" y="280" width="40" height="15" as="geometry" />
        </mxCell>
        <mxCell id="sJ80HO0eEis165o_eqjd-48" style="edgeStyle=orthogonalEdgeStyle;shape=connector;rounded=0;orthogonalLoop=1;jettySize=auto;html=1;strokeColor=default;align=center;verticalAlign=middle;fontFamily=Helvetica;fontSize=11;fontColor=default;labelBackgroundColor=default;endArrow=none;endFill=0;" edge="1" parent="1" source="sJ80HO0eEis165o_eqjd-47" target="sJ80HO0eEis165o_eqjd-1">
          <mxGeometry relative="1" as="geometry" />
        </mxCell>
        <mxCell id="sJ80HO0eEis165o_eqjd-47" value="Endereço" style="ellipse;whiteSpace=wrap;html=1;align=center;" vertex="1" parent="1">
          <mxGeometry x="170" y="360" width="50" height="25" as="geometry" />
        </mxCell>
        <mxCell id="sJ80HO0eEis165o_eqjd-51" value="Telefones" style="ellipse;shape=doubleEllipse;margin=3;whiteSpace=wrap;html=1;align=center;fontFamily=Helvetica;fontSize=11;fontColor=default;labelBackgroundColor=default;" vertex="1" parent="1">
          <mxGeometry x="230" y="360" width="60" height="30" as="geometry" />
        </mxCell>
        <mxCell id="sJ80HO0eEis165o_eqjd-52" style="edgeStyle=orthogonalEdgeStyle;shape=connector;rounded=0;orthogonalLoop=1;jettySize=auto;html=1;entryX=0.62;entryY=1.036;entryDx=0;entryDy=0;entryPerimeter=0;strokeColor=default;align=center;verticalAlign=middle;fontFamily=Helvetica;fontSize=11;fontColor=default;labelBackgroundColor=default;endArrow=none;endFill=0;" edge="1" parent="1" source="sJ80HO0eEis165o_eqjd-51" target="sJ80HO0eEis165o_eqjd-1">
          <mxGeometry relative="1" as="geometry" />
        </mxCell>
        <mxCell id="sJ80HO0eEis165o_eqjd-54" value="" style="edgeStyle=orthogonalEdgeStyle;shape=connector;rounded=0;orthogonalLoop=1;jettySize=auto;html=1;strokeColor=default;align=center;verticalAlign=middle;fontFamily=Helvetica;fontSize=11;fontColor=default;labelBackgroundColor=default;endArrow=none;endFill=0;" edge="1" parent="1" source="sJ80HO0eEis165o_eqjd-53" target="sJ80HO0eEis165o_eqjd-2">
          <mxGeometry relative="1" as="geometry" />
        </mxCell>
        <mxCell id="sJ80HO0eEis165o_eqjd-53" value="Nome" style="ellipse;whiteSpace=wrap;html=1;align=center;" vertex="1" parent="1">
          <mxGeometry x="650" y="307.5" width="50" height="25" as="geometry" />
        </mxCell>
        <mxCell id="sJ80HO0eEis165o_eqjd-57" value="" style="edgeStyle=orthogonalEdgeStyle;shape=connector;rounded=0;orthogonalLoop=1;jettySize=auto;html=1;strokeColor=default;align=center;verticalAlign=middle;fontFamily=Helvetica;fontSize=11;fontColor=default;labelBackgroundColor=default;endArrow=none;endFill=0;" edge="1" parent="1" source="sJ80HO0eEis165o_eqjd-56" target="sJ80HO0eEis165o_eqjd-2">
          <mxGeometry relative="1" as="geometry" />
        </mxCell>
        <mxCell id="sJ80HO0eEis165o_eqjd-56" value="Especie" style="ellipse;whiteSpace=wrap;html=1;align=center;" vertex="1" parent="1">
          <mxGeometry x="600" y="260" width="50" height="20" as="geometry" />
        </mxCell>
        <mxCell id="sJ80HO0eEis165o_eqjd-59" value="" style="edgeStyle=orthogonalEdgeStyle;shape=connector;rounded=0;orthogonalLoop=1;jettySize=auto;html=1;strokeColor=default;align=center;verticalAlign=middle;fontFamily=Helvetica;fontSize=11;fontColor=default;labelBackgroundColor=default;endArrow=none;endFill=0;" edge="1" parent="1" source="sJ80HO0eEis165o_eqjd-58" target="sJ80HO0eEis165o_eqjd-2">
          <mxGeometry relative="1" as="geometry" />
        </mxCell>
        <mxCell id="sJ80HO0eEis165o_eqjd-58" value="Raça" style="ellipse;whiteSpace=wrap;html=1;align=center;" vertex="1" parent="1">
          <mxGeometry x="560" y="260" width="40" height="15" as="geometry" />
        </mxCell>
        <mxCell id="sJ80HO0eEis165o_eqjd-61" style="edgeStyle=orthogonalEdgeStyle;shape=connector;rounded=0;orthogonalLoop=1;jettySize=auto;html=1;entryX=0.75;entryY=1;entryDx=0;entryDy=0;strokeColor=default;align=center;verticalAlign=middle;fontFamily=Helvetica;fontSize=11;fontColor=default;labelBackgroundColor=default;endArrow=none;endFill=0;" edge="1" parent="1" source="sJ80HO0eEis165o_eqjd-60" target="sJ80HO0eEis165o_eqjd-2">
          <mxGeometry relative="1" as="geometry" />
        </mxCell>
        <mxCell id="sJ80HO0eEis165o_eqjd-60" value="Nascimento" style="ellipse;whiteSpace=wrap;html=1;align=center;" vertex="1" parent="1">
          <mxGeometry x="645" y="350" width="70" height="25" as="geometry" />
        </mxCell>
        <mxCell id="sJ80HO0eEis165o_eqjd-64" style="edgeStyle=orthogonalEdgeStyle;shape=connector;rounded=0;orthogonalLoop=1;jettySize=auto;html=1;entryX=1;entryY=0.75;entryDx=0;entryDy=0;strokeColor=default;align=center;verticalAlign=middle;fontFamily=Helvetica;fontSize=11;fontColor=default;labelBackgroundColor=default;endArrow=none;endFill=0;" edge="1" parent="1" source="sJ80HO0eEis165o_eqjd-63" target="sJ80HO0eEis165o_eqjd-4">
          <mxGeometry relative="1" as="geometry" />
        </mxCell>
        <mxCell id="sJ80HO0eEis165o_eqjd-63" value="Hora" style="ellipse;whiteSpace=wrap;html=1;align=center;" vertex="1" parent="1">
          <mxGeometry x="650" y="545" width="50" height="25" as="geometry" />
        </mxCell>
        <mxCell id="sJ80HO0eEis165o_eqjd-66" value="" style="edgeStyle=orthogonalEdgeStyle;shape=connector;rounded=0;orthogonalLoop=1;jettySize=auto;html=1;strokeColor=default;align=center;verticalAlign=middle;fontFamily=Helvetica;fontSize=11;fontColor=default;labelBackgroundColor=default;endArrow=none;endFill=0;" edge="1" parent="1" source="sJ80HO0eEis165o_eqjd-65" target="sJ80HO0eEis165o_eqjd-4">
          <mxGeometry relative="1" as="geometry" />
        </mxCell>
        <mxCell id="sJ80HO0eEis165o_eqjd-65" value="Diagnostico" style="ellipse;whiteSpace=wrap;html=1;align=center;" vertex="1" parent="1">
          <mxGeometry x="500" y="570" width="70" height="25" as="geometry" />
        </mxCell>
        <mxCell id="sJ80HO0eEis165o_eqjd-68" value="" style="edgeStyle=orthogonalEdgeStyle;shape=connector;rounded=0;orthogonalLoop=1;jettySize=auto;html=1;strokeColor=default;align=center;verticalAlign=middle;fontFamily=Helvetica;fontSize=11;fontColor=default;labelBackgroundColor=default;endArrow=none;endFill=0;" edge="1" parent="1" source="sJ80HO0eEis165o_eqjd-67" target="sJ80HO0eEis165o_eqjd-4">
          <mxGeometry relative="1" as="geometry" />
        </mxCell>
        <mxCell id="sJ80HO0eEis165o_eqjd-67" value="Observações" style="ellipse;whiteSpace=wrap;html=1;align=center;" vertex="1" parent="1">
          <mxGeometry x="570" y="570" width="80" height="25" as="geometry" />
        </mxCell>
        <mxCell id="sJ80HO0eEis165o_eqjd-72" value="" style="edgeStyle=orthogonalEdgeStyle;shape=connector;rounded=0;orthogonalLoop=1;jettySize=auto;html=1;strokeColor=default;align=center;verticalAlign=middle;fontFamily=Helvetica;fontSize=11;fontColor=default;labelBackgroundColor=default;endArrow=none;endFill=0;" edge="1" parent="1" source="sJ80HO0eEis165o_eqjd-71" target="sJ80HO0eEis165o_eqjd-3">
          <mxGeometry relative="1" as="geometry" />
        </mxCell>
        <mxCell id="sJ80HO0eEis165o_eqjd-71" value="Nome" style="ellipse;whiteSpace=wrap;html=1;align=center;" vertex="1" parent="1">
          <mxGeometry x="110" y="507.5" width="40" height="25" as="geometry" />
        </mxCell>
        <mxCell id="sJ80HO0eEis165o_eqjd-75" style="edgeStyle=orthogonalEdgeStyle;shape=connector;rounded=0;orthogonalLoop=1;jettySize=auto;html=1;entryX=0;entryY=0.5;entryDx=0;entryDy=0;strokeColor=default;align=center;verticalAlign=middle;fontFamily=Helvetica;fontSize=11;fontColor=default;labelBackgroundColor=default;endArrow=none;endFill=0;" edge="1" parent="1" source="sJ80HO0eEis165o_eqjd-73" target="sJ80HO0eEis165o_eqjd-3">
          <mxGeometry relative="1" as="geometry" />
        </mxCell>
        <mxCell id="sJ80HO0eEis165o_eqjd-73" value="Telefone" style="ellipse;whiteSpace=wrap;html=1;align=center;" vertex="1" parent="1">
          <mxGeometry x="100" y="532.5" width="50" height="15" as="geometry" />
        </mxCell>
        <mxCell id="sJ80HO0eEis165o_eqjd-79" style="edgeStyle=orthogonalEdgeStyle;shape=connector;rounded=0;orthogonalLoop=1;jettySize=auto;html=1;entryX=0.5;entryY=0;entryDx=0;entryDy=0;strokeColor=default;align=center;verticalAlign=middle;fontFamily=Helvetica;fontSize=11;fontColor=default;labelBackgroundColor=default;endArrow=none;endFill=0;" edge="1" parent="1" source="sJ80HO0eEis165o_eqjd-76" target="sJ80HO0eEis165o_eqjd-3">
          <mxGeometry relative="1" as="geometry" />
        </mxCell>
        <mxCell id="sJ80HO0eEis165o_eqjd-76" value="Especialidade" style="ellipse;whiteSpace=wrap;html=1;align=center;" vertex="1" parent="1">
          <mxGeometry x="175" y="460" width="90" height="25" as="geometry" />
        </mxCell>
        <mxCell id="sJ80HO0eEis165o_eqjd-82" style="edgeStyle=orthogonalEdgeStyle;shape=connector;rounded=0;orthogonalLoop=1;jettySize=auto;html=1;entryX=1;entryY=0.25;entryDx=0;entryDy=0;strokeColor=default;align=center;verticalAlign=middle;fontFamily=Helvetica;fontSize=11;fontColor=default;labelBackgroundColor=default;endArrow=none;endFill=0;" edge="1" parent="1" source="sJ80HO0eEis165o_eqjd-81" target="sJ80HO0eEis165o_eqjd-5">
          <mxGeometry relative="1" as="geometry" />
        </mxCell>
        <mxCell id="sJ80HO0eEis165o_eqjd-81" value="Nome" style="ellipse;whiteSpace=wrap;html=1;align=center;" vertex="1" parent="1">
          <mxGeometry x="655" y="110" width="50" height="25" as="geometry" />
        </mxCell>
        <mxCell id="sJ80HO0eEis165o_eqjd-85" style="edgeStyle=orthogonalEdgeStyle;shape=connector;rounded=0;orthogonalLoop=1;jettySize=auto;html=1;entryX=1;entryY=0.75;entryDx=0;entryDy=0;strokeColor=default;align=center;verticalAlign=middle;fontFamily=Helvetica;fontSize=11;fontColor=default;labelBackgroundColor=default;endArrow=none;endFill=0;" edge="1" parent="1" source="sJ80HO0eEis165o_eqjd-83" target="sJ80HO0eEis165o_eqjd-5">
          <mxGeometry relative="1" as="geometry" />
        </mxCell>
        <mxCell id="sJ80HO0eEis165o_eqjd-83" value="Preço" style="ellipse;whiteSpace=wrap;html=1;align=center;" vertex="1" parent="1">
          <mxGeometry x="660" y="140" width="45" height="20" as="geometry" />
        </mxCell>
        <mxCell id="sJ80HO0eEis165o_eqjd-89" style="edgeStyle=orthogonalEdgeStyle;shape=connector;rounded=0;orthogonalLoop=1;jettySize=auto;html=1;entryX=0.5;entryY=1;entryDx=0;entryDy=0;strokeColor=default;align=center;verticalAlign=middle;fontFamily=Helvetica;fontSize=11;fontColor=default;labelBackgroundColor=default;endArrow=none;endFill=0;" edge="1" parent="1" source="sJ80HO0eEis165o_eqjd-87" target="sJ80HO0eEis165o_eqjd-5">
          <mxGeometry relative="1" as="geometry" />
        </mxCell>
        <mxCell id="sJ80HO0eEis165o_eqjd-87" value="Quantidade" style="ellipse;whiteSpace=wrap;html=1;align=center;" vertex="1" parent="1">
          <mxGeometry x="550" y="180" width="70" height="25" as="geometry" />
        </mxCell>
        <mxCell id="sJ80HO0eEis165o_eqjd-92" style="edgeStyle=orthogonalEdgeStyle;shape=connector;rounded=0;orthogonalLoop=1;jettySize=auto;html=1;entryX=0.5;entryY=0;entryDx=0;entryDy=0;strokeColor=default;align=center;verticalAlign=middle;fontFamily=Helvetica;fontSize=11;fontColor=default;labelBackgroundColor=default;endArrow=none;endFill=0;" edge="1" parent="1" source="sJ80HO0eEis165o_eqjd-91" target="sJ80HO0eEis165o_eqjd-6">
          <mxGeometry relative="1" as="geometry" />
        </mxCell>
        <mxCell id="sJ80HO0eEis165o_eqjd-91" value="Quantidade" style="ellipse;whiteSpace=wrap;html=1;align=center;" vertex="1" parent="1">
          <mxGeometry x="185" y="70" width="70" height="30" as="geometry" />
        </mxCell>
        <mxCell id="sJ80HO0eEis165o_eqjd-94" value="Cliente: CodCli, CPFCli, NomeCli, EndCli, TelCli" style="text;strokeColor=none;fillColor=none;spacingLeft=4;spacingRight=4;overflow=hidden;rotatable=0;points=[[0,0.5],[1,0.5]];portConstraint=eastwest;fontSize=11;whiteSpace=wrap;html=1;fontFamily=Helvetica;fontColor=default;labelBackgroundColor=default;" vertex="1" parent="1">
          <mxGeometry x="90" y="640" width="390" height="30" as="geometry" />
        </mxCell>
        <mxCell id="sJ80HO0eEis165o_eqjd-95" value="Veterinário: NomeVet, TelVet, CRMV, EspecVet" style="text;strokeColor=none;fillColor=none;spacingLeft=4;spacingRight=4;overflow=hidden;rotatable=0;points=[[0,0.5],[1,0.5]];portConstraint=eastwest;fontSize=11;whiteSpace=wrap;html=1;fontFamily=Helvetica;fontColor=default;labelBackgroundColor=default;" vertex="1" parent="1">
          <mxGeometry x="90" y="660" width="390" height="30" as="geometry" />
        </mxCell>
        <mxCell id="sJ80HO0eEis165o_eqjd-96" value="Atendimento: DataAtd, DiagAtd, ObsAtd, HoraAtd" style="text;strokeColor=none;fillColor=none;spacingLeft=4;spacingRight=4;overflow=hidden;rotatable=0;points=[[0,0.5],[1,0.5]];portConstraint=eastwest;fontSize=11;whiteSpace=wrap;html=1;fontFamily=Helvetica;fontColor=default;labelBackgroundColor=default;" vertex="1" parent="1">
          <mxGeometry x="90" y="680" width="390" height="30" as="geometry" />
        </mxCell>
        <mxCell id="sJ80HO0eEis165o_eqjd-97" value="Animal: CodAni, RaçaAni, Especie, NomeAnim, NasciAnim" style="text;strokeColor=none;fillColor=none;spacingLeft=4;spacingRight=4;overflow=hidden;rotatable=0;points=[[0,0.5],[1,0.5]];portConstraint=eastwest;fontSize=11;whiteSpace=wrap;html=1;fontFamily=Helvetica;fontColor=default;labelBackgroundColor=default;" vertex="1" parent="1">
          <mxGeometry x="90" y="700" width="390" height="30" as="geometry" />
        </mxCell>
        <mxCell id="sJ80HO0eEis165o_eqjd-98" value="Venda: DataVenda, QtdVenda&amp;nbsp;" style="text;strokeColor=none;fillColor=none;spacingLeft=4;spacingRight=4;overflow=hidden;rotatable=0;points=[[0,0.5],[1,0.5]];portConstraint=eastwest;fontSize=11;whiteSpace=wrap;html=1;fontFamily=Helvetica;fontColor=default;labelBackgroundColor=default;" vertex="1" parent="1">
          <mxGeometry x="90" y="720" width="390" height="30" as="geometry" />
        </mxCell>
        <mxCell id="sJ80HO0eEis165o_eqjd-99" value="Produto: CodProd, NomeProd, PreçoProd, QtdProd" style="text;strokeColor=none;fillColor=none;spacingLeft=4;spacingRight=4;overflow=hidden;rotatable=0;points=[[0,0.5],[1,0.5]];portConstraint=eastwest;fontSize=11;whiteSpace=wrap;html=1;fontFamily=Helvetica;fontColor=default;labelBackgroundColor=default;" vertex="1" parent="1">
          <mxGeometry x="90" y="740" width="390" height="30" as="geometry" />
        </mxCell>
      </root>
    </mxGraphModel>
  </diagram>
</mxfile>
